<svg xmlns="http://www.w3.org/2000/svg" xmlns:xlink="http://www.w3.org/1999/xlink" viewBox="0 0 1972 1080"><defs><style>.cls-1{fill:#edf4fb;}.cls-2{fill:#ced1cc;}.cls-3{fill:#ddded8;}.cls-4{fill:#e9e6df;}.cls-27,.cls-34,.cls-36,.cls-46,.cls-5{fill:#fff;}.cls-6{fill:#cadae1;}.cls-7{fill:#e1cebd;}.cls-8{fill:#7fa6af;}.cls-9{fill:#14254b;}.cls-10{fill:#b1cbd9;}.cls-11{fill:#e8eed5;}.cls-12{fill:#dfe8c9;}.cls-13{fill:#dce1c9;}.cls-14{fill:#d3d7c2;}.cls-15{fill:#ced1bc;}.cls-16{fill:#7192a5;}.cls-17{fill:#214259;}.cls-18{fill:#d7edf0;}.cls-19{fill:#c3beb8;}.cls-20{fill:#639466;}.cls-21{fill:#52a359;}.cls-22{fill:#546a54;}.cls-23{fill:#476a49;}.cls-24{fill:#8dc641;}.cls-25{fill:#d1cbc3;}.cls-26{fill:#18244d;}.cls-27{font-size:52.37px;font-family:Futura-Bold, Futura;font-weight:700;}.cls-28{letter-spacing:0.01em;}.cls-29{letter-spacing:0em;}.cls-30{fill:#ed6b5f;}.cls-31{fill:#f4be4f;}.cls-32{fill:#6abe57;}.cls-33{fill:#010101;opacity:0.5;}.cls-34{font-size:42px;stroke-width:3px;}.cls-34,.cls-46{stroke:#fff;stroke-miterlimit:10;}.cls-34,.cls-36,.cls-48{font-family:Futura-Medium, Futura;}.cls-35{letter-spacing:-0.02em;}.cls-36{font-size:34px;}.cls-37{letter-spacing:0.02em;}.cls-38{letter-spacing:-0.03em;}.cls-39{letter-spacing:-0.01em;}.cls-40{letter-spacing:-0.01em;}.cls-41{letter-spacing:0.01em;}.cls-42{letter-spacing:0.01em;}.cls-43{letter-spacing:0.02em;}.cls-44{letter-spacing:0.01em;}.cls-45{letter-spacing:-0.01em;}.cls-47{letter-spacing:-0.02em;}.cls-48{font-size:24px;fill:#231f20;}.cls-49{letter-spacing:-0.03em;}.cls-50{letter-spacing:0.04em;}.cls-51{letter-spacing:-0.04em;}.cls-52{letter-spacing:0.01em;}.cls-53{letter-spacing:-0.01em;}</style></defs><title>Page Credits FIX BGT</title><g id="Layer_2" data-name="Layer 2"><g id="Layer_1-2" data-name="Layer 1"><rect class="cls-1" width="1920" height="1080"/><polyline class="cls-2" points="1461 231.66 1107.39 405 970.1 405 947.48 405 810.18 405 445 226"/><path class="cls-3" d="M610.05,305.63,488,164l960,2.8L1298.56,315"/><polyline class="cls-4" points="366.68 180.11 182 0 949.82 0 969.22 0 1737 0 1549.37 183"/><polygon class="cls-5" points="972 1080 1920 1080 1118.04 611 972.05 611 948 611 802 611 0 1080 948.05 1080 972 1080"/><polyline class="cls-6" points="443.43 224 0 0 572.95 0 903.24 405.14 802 405.14 443.43 224"/><polygon class="cls-6" points="1119.1 405.14 1920 0 1347.84 0 1018 405.14 1119.1 405.14"/><rect class="cls-7" x="802" y="405" width="317" height="206"/><rect class="cls-8" x="821" y="417.77" width="278" height="193.23"/><rect class="cls-6" x="868.5" y="432.46" width="183" height="178.54"/><rect class="cls-5" y="398" width="82.71" height="284"/><rect class="cls-9" y="602" width="82.71" height="80"/><rect class="cls-9" y="561" width="82.71" height="15"/><rect class="cls-9" y="520" width="82.71" height="15"/><rect class="cls-9" y="477" width="82.71" height="15"/><rect class="cls-9" y="435" width="82.71" height="15"/><path class="cls-10" d="M1299.81,716.09,1299,403l347-141V920Z"/><rect class="cls-11" x="517" y="916.35" width="886" height="163.65"/><rect class="cls-12" x="582.5" y="786.63" width="755" height="132.72"/><rect class="cls-13" x="698" y="700.81" width="525" height="85.82"/><rect class="cls-14" x="788.75" y="635.95" width="342.5" height="64.86"/><rect class="cls-15" x="853.38" y="611" width="213.25" height="24.95"/><polygon class="cls-16" points="802 611 0 1080 572.95 1080 903.24 611 802 611"/><polygon class="cls-16" points="1119.1 611 1920 1079 1347.84 1079 1018 611 1119.1 611"/><rect class="cls-8" x="956.5" y="432" width="7" height="179"/><path class="cls-10" d="M1286,710q-1-159.5-2-319l383.15-163q.43,353.51.85,707Z"/><path class="cls-17" d="M1295.81,716.09,1295,403l347-141V920Z"/><path class="cls-18" d="M1298,527.39V565l340,71V502Z"/><polygon class="cls-10" points="1429.28 348.21 1429.28 792.32 1442.06 800.22 1442.06 343 1429.28 348.21"/><path class="cls-19" d="M1731.3,1009.13l-4-281.9,126.11-1.11,4,282.94c.37,26-21.65,47.24-49.19,47.48l-25.29.22c-28.15.25-51.27-21.08-51.65-47.63"/><path class="cls-20" d="M1784.7,687.2c12.48-19.75,25.08-39.77,30.19-61s2-44.3-15-62c-17.38-18.08-46.93-28.44-76.74-34.37-7.72,26.23-1.61,53.63,11.12,78.67s31.81,48.13,50.45,78.73"/><path class="cls-21" d="M1731.54,698.47c-14-16.46-36.15-29.37-61.63-36-19.16-5-41.15-6.27-59.68-.13s-32,21-27.78,35.15c26.12.91,49.91,10.18,74.39,16.65s53.51,9.91,74.7-15.7"/><path class="cls-22" d="M1780.66,720.36c-30.17-9.15-68.23-3-90,14.49s-25.51,45.06-8.9,65.13a772.56,772.56,0,0,0,87.84-45.25c8.19-4.92,16.49-10.21,20.77-17.19s2.42-13.49-9.74-17.18"/><path class="cls-23" d="M1792,693.63c-6.92-19.5-15.59-39-31.58-55.64a111.08,111.08,0,0,0-68.44-32.7c-28.09-2.68-59.31,7.46-70.07,26.1L1720.14,696c9.35,6.15,19.77,12.64,32.51,13.26,15.42.74,28.66-7.26,39.34-15.58"/><path class="cls-24" d="M1780.44,707.71c-29.38-7.44-59.16-15-90.41-17.26s-64.66,1.1-89.62,13.72c-25.52,12.9-39.19,33.7-46.41,54.42,38.6,3.83,78.24-1.88,114.13-12s68.6-24.45,112.31-38.9"/><path class="cls-24" d="M1761.26,702.93c8-19.64,18.18-39.38,37.63-56.31s49.45-30.89,84.53-34.18S1957.9,618.6,1972,637l-120.74,66.68c-11.5,6.35-24.31,13.07-40.24,14-19.27,1.08-36.11-6.63-49.76-14.71"/><path class="cls-21" d="M1751.43,721.28c17-16.77,44.23-30.15,75.9-37.31,23.82-5.37,51.29-7.16,74.68-1.43s40.78,20.28,36,34.53c-32.65,1.49-62.11,11.27-92.52,18.27s-66.63,11.08-94-14.06"/><path class="cls-23" d="M1767.38,709.32c38.71-7.1,85.48,1.57,110.55,20.49s26.52,46.65,3.45,65.54a999,999,0,0,1-104.27-51c-9.65-5.46-19.37-11.29-23.89-18.54s-1.44-13.61,14.16-16.47"/><ellipse class="cls-25" cx="960.5" cy="75.5" rx="210.5" ry="42.5"/><rect class="cls-16" x="916" y="517" width="36" height="10" rx="5" ry="5"/><rect class="cls-16" x="968" y="517" width="36" height="10" rx="5" ry="5"/><rect class="cls-26" x="872.04" y="82.86" width="4.65" height="56.99"/><path class="cls-26" d="M885.51,146c0-4-5-7.29-11.15-7.29S863.21,142,863.21,146"/><path class="cls-26" d="M885.52,77c0,4-5,7.29-11.16,7.29S863.21,81,863.21,77Z"/><rect class="cls-26" x="1043.06" y="82.86" width="4.65" height="57.31"/><path class="cls-26" d="M1056.54,146c0-4-5-7.29-11.15-7.29s-11.16,3.26-11.16,7.29"/><path class="cls-26" d="M1056.79,77c0,4-5,7.29-11.15,7.29S1034.49,81,1034.49,77Z"/><rect class="cls-9" x="790.69" y="145.68" width="338.62" height="127.92"/><rect class="cls-9" x="797.85" y="145.34" width="323.03" height="109.15"/><text class="cls-27" transform="translate(862.72 230.51)">C<tspan class="cls-28" x="34.93" y="0">r</tspan><tspan x="59.64" y="0">edi</tspan><tspan class="cls-29" x="146.2" y="0">t</tspan><tspan x="166" y="0">s</tspan></text><circle class="cls-30" cx="923.65" cy="159.75" r="2.75"/><circle class="cls-31" cx="959.8" cy="159.75" r="2.75"/><circle class="cls-32" cx="996.35" cy="159.75" r="2.75"/><path class="cls-10" d="M630,710q1-159.5,2-319L248.85,228q-.42,353.51-.85,707Z"/><path class="cls-17" d="M620.19,716.09,621,403,274,262V920Z"/><path class="cls-18" d="M618,527.39V565L278,636V502Z"/><polygon class="cls-10" points="486.72 348.21 486.72 792.32 473.94 800.22 473.94 343 486.72 348.21"/><rect class="cls-33" x="314" y="305" width="1293" height="636"/><text class="cls-34" transform="translate(850.59 390.47) scale(1 0.9)">P<tspan class="cls-35" x="22.68" y="0">R</tspan><tspan x="47.25" y="0">ODUSER</tspan></text><text class="cls-36" transform="translate(822.78 458.13)">Ca<tspan class="cls-37" x="44.21" y="0">r</tspan><tspan x="57.44" y="0">issa Lois </tspan><tspan class="cls-38" x="192.64" y="0">T</tspan><tspan class="cls-39" x="207.88" y="0">r</tspan><tspan x="220.37" y="0">acy</tspan></text><image width="870" height="1600" transform="translate(34 61) scale(0.1)" xlink:href="../../../../Downloads/logo-umn-png.png"/><text class="cls-34" transform="translate(1158.33 762.47) scale(1 0.9)">DE<tspan class="cls-40" x="54.24" y="0">S</tspan><tspan x="78.4" y="0">AINER GRAFIS</tspan></text><text class="cls-36" transform="translate(1195.87 833.13)">Sa<tspan class="cls-41" x="40.21" y="0">l</tspan><tspan class="cls-35" x="48.97" y="0">v</tspan><tspan x="65.48" y="0">a</tspan><tspan class="cls-42" x="85.86" y="0">t</tspan><tspan x="95.39" y="0">or Gib</tspan><tspan class="cls-39" x="196.53" y="0">r</tspan><tspan x="209.01" y="0">an A</tspan></text><text class="cls-36" transform="translate(1165.01 893.13)">Sha<tspan class="cls-43" x="58.85" y="0">f</tspan><tspan x="69.66" y="0">iqah Ali</tspan><tspan class="cls-43" x="190.15" y="0">f</tspan><tspan x="200.96" y="0">ia Annisa</tspan></text><text class="cls-34" transform="translate(1194.87 564.47) scale(1 0.9)">VIDEOGRAFER</text><text class="cls-36" transform="translate(1204.78 632.13)">Ca<tspan class="cls-37" x="44.21" y="0">r</tspan><tspan x="57.44" y="0">issa Lois </tspan><tspan class="cls-38" x="192.64" y="0">T</tspan><tspan class="cls-39" x="207.88" y="0">r</tspan><tspan x="220.37" y="0">acy</tspan></text><text class="cls-34" transform="translate(456.37 762.47) scale(1 0.9)">PE<tspan class="cls-44" x="46.43" y="0">N</tspan><tspan x="82.22" y="0">GEM</tspan><tspan class="cls-45" x="181.72" y="0">B</tspan><tspan x="206.08" y="0">A</tspan><tspan class="cls-44" x="237.19" y="0">N</tspan><tspan x="272.98" y="0">G</tspan></text><path class="cls-46" d="M417.48,818c0,.8-.05,1.73-.07,2.8s0,2,0,2.65c0,1.12,0,2.36,0,3.74s0,2.15,0,2.3l-1,.08c-.57,0-1.12,0-1.65,0a26.23,26.23,0,0,1-7-.84,12.33,12.33,0,0,1-5.25-3,9.58,9.58,0,0,1-2.22-3.21,10.81,10.81,0,0,1-.84-4.37,9.46,9.46,0,0,1,1.61-5.41,11.55,11.55,0,0,1,4.4-3.84,16.32,16.32,0,0,1,4.34-1.5,24.8,24.8,0,0,1,5.08-.51h1.41l.2,2.39h-1.28a23.91,23.91,0,0,0-4.66.43,13.91,13.91,0,0,0-3.69,1.27,8.53,8.53,0,0,0-3.36,3.07,7.6,7.6,0,0,0-1.22,4.14,7.8,7.8,0,0,0,1.27,4.59,8.87,8.87,0,0,0,3.28,2.85,14,14,0,0,0,3.8,1.29,22.34,22.34,0,0,0,4.13.37c0-.17,0-1,0-2.58s0-3.81-.06-6.8Z"/><path class="cls-46" d="M436.57,820.42h-12a7.41,7.41,0,0,0,.75,3.23,6.12,6.12,0,0,0,2.24,2.43,7.29,7.29,0,0,0,2.19.92,12.11,12.11,0,0,0,3,.31c.63,0,1.21,0,1.73,0l1-.07-.3,2.21-.88.06c-.5,0-1.09,0-1.76,0a14.06,14.06,0,0,1-4.63-.69,8.83,8.83,0,0,1-3.23-1.9,8.46,8.46,0,0,1-1.83-2.59,8.05,8.05,0,0,1-.76-3.5,9.74,9.74,0,0,1,.57-3.42,9.3,9.3,0,0,1,1.69-2.84,6.68,6.68,0,0,1,2.43-1.74,7.7,7.7,0,0,1,3-.62,7.53,7.53,0,0,1,2.74.47,5.54,5.54,0,0,1,2.07,1.41,7.13,7.13,0,0,1,1.5,2.61A12.32,12.32,0,0,1,436.57,820.42ZM434,818.56a5.45,5.45,0,0,0-1.4-3.23,4,4,0,0,0-3-1.17,4.34,4.34,0,0,0-3.11,1.19,6.32,6.32,0,0,0-1.73,3.21Z"/><path class="cls-46" d="M450.1,824.57a4,4,0,0,1-.6,2.19,4.84,4.84,0,0,1-1.56,1.56,8.1,8.1,0,0,1-2.41,1,13.76,13.76,0,0,1-3.06.32c-.55,0-1.11,0-1.69-.07l-1-.09-.1-2.18,1.15.09c.67,0,1.34.08,2,.08.39,0,.89,0,1.5-.1a5.13,5.13,0,0,0,1.51-.37,3.06,3.06,0,0,0,1.23-.89,2.13,2.13,0,0,0,.39-1.28,1.69,1.69,0,0,0-.34-1.11,4.58,4.58,0,0,0-1-.82,11.29,11.29,0,0,0-1.81-1,20.5,20.5,0,0,1-1.94-1,5.2,5.2,0,0,1-1.7-1.62,3.94,3.94,0,0,1-.59-2.15,3.87,3.87,0,0,1,.67-2.21,5,5,0,0,1,1.81-1.58,6.43,6.43,0,0,1,2.17-.7,15.35,15.35,0,0,1,2.3-.18c.68,0,1.23,0,1.66,0l.75,0,.19,2.21-1-.07c-.6,0-1.26-.07-2-.07a7.51,7.51,0,0,0-1.45.14,4.09,4.09,0,0,0-1.18.38,2.43,2.43,0,0,0-1,.88,2,2,0,0,0-.31,1,1.65,1.65,0,0,0,.44,1.15,3.83,3.83,0,0,0,1,.81c.46.27,1.08.58,1.86,1a17,17,0,0,1,1.72.88,5.86,5.86,0,0,1,1.77,1.63A3.63,3.63,0,0,1,450.1,824.57Z"/><path class="cls-46" d="M463.93,824.57a4,4,0,0,1-.6,2.19,4.84,4.84,0,0,1-1.56,1.56,8.1,8.1,0,0,1-2.41,1,13.85,13.85,0,0,1-3.07.32c-.54,0-1.1,0-1.68-.07l-1-.09-.1-2.18,1.15.09c.67,0,1.34.08,2,.08.39,0,.89,0,1.5-.1a5.21,5.21,0,0,0,1.51-.37,3.06,3.06,0,0,0,1.23-.89,2.13,2.13,0,0,0,.39-1.28,1.69,1.69,0,0,0-.34-1.11,4.58,4.58,0,0,0-1-.82,11,11,0,0,0-1.82-1,21.46,21.46,0,0,1-1.93-1,5.2,5.2,0,0,1-1.7-1.62,3.94,3.94,0,0,1-.59-2.15,3.79,3.79,0,0,1,.67-2.21,5,5,0,0,1,1.81-1.58,6.43,6.43,0,0,1,2.17-.7,15.35,15.35,0,0,1,2.3-.18c.68,0,1.23,0,1.66,0l.75,0,.19,2.21-1-.07c-.6,0-1.27-.07-2-.07a7.51,7.51,0,0,0-1.45.14,4.09,4.09,0,0,0-1.18.38,2.43,2.43,0,0,0-1,.88,2,2,0,0,0-.31,1,1.65,1.65,0,0,0,.44,1.15,3.83,3.83,0,0,0,1,.81c.46.27,1.08.58,1.86,1a17,17,0,0,1,1.72.88,6,6,0,0,1,1.77,1.63A3.7,3.7,0,0,1,463.93,824.57Z"/><path class="cls-46" d="M481.56,820.42h-12a7.27,7.27,0,0,0,.74,3.23,6.12,6.12,0,0,0,2.24,2.43,7.29,7.29,0,0,0,2.19.92,12.11,12.11,0,0,0,3,.31c.63,0,1.21,0,1.73,0l1-.07-.3,2.21-.88.06c-.5,0-1.09,0-1.76,0a14.06,14.06,0,0,1-4.63-.69,8.83,8.83,0,0,1-3.23-1.9,8.63,8.63,0,0,1-1.83-2.59,8.05,8.05,0,0,1-.76-3.5,9.74,9.74,0,0,1,.57-3.42,9.3,9.3,0,0,1,1.69-2.84,6.68,6.68,0,0,1,2.43-1.74,7.7,7.7,0,0,1,3-.62,7.53,7.53,0,0,1,2.74.47,5.54,5.54,0,0,1,2.07,1.41,7.13,7.13,0,0,1,1.5,2.61A12.32,12.32,0,0,1,481.56,820.42ZM479,818.56a5.45,5.45,0,0,0-1.4-3.23,4,4,0,0,0-3-1.17,4.34,4.34,0,0,0-3.11,1.19,6.4,6.4,0,0,0-1.73,3.21Z"/><path class="cls-46" d="M488.75,829.44h-2.63c0-.14,0-1.76,0-4.86s0-5.68,0-7.73c0-1.32,0-3,0-5s0-4.26-.06-6.76h2.63c0,1.7,0,3.68-.05,5.92s0,4.13,0,5.67q0,5,0,8.79C488.74,828,488.75,829.31,488.75,829.44Z"/><path class="cls-46" d="M518,829.4h-2.1c-1.27,0-2.89,0-4.86,0-1.29,0-2.52,0-3.69,0h-3c0-1.9,0-3.83.05-5.78s0-3.87,0-5.76c0-3.14,0-5.54,0-7.18s0-2.81-.05-3.47h2.73c0,1.42,0,3.07-.05,4.94s0,3.4,0,4.59q0,4.37,0,7.29c0,1.94,0,3,0,3.08h3.39c2,0,3.7,0,5.17,0l2.35,0Z"/><path class="cls-46" d="M534.78,820.42h-12a7.27,7.27,0,0,0,.75,3.23,6,6,0,0,0,2.24,2.43A7.19,7.19,0,0,0,528,827a12,12,0,0,0,2.95.31c.64,0,1.21,0,1.74,0l1-.07-.3,2.21-.88.06c-.5,0-1.08,0-1.76,0a14,14,0,0,1-4.62-.69,8.75,8.75,0,0,1-3.23-1.9,8.66,8.66,0,0,1-1.84-2.59,8,8,0,0,1-.75-3.5,10,10,0,0,1,.56-3.42,9.13,9.13,0,0,1,1.7-2.84,6.52,6.52,0,0,1,2.43-1.74,7.65,7.65,0,0,1,3-.62,7.49,7.49,0,0,1,2.74.47,5.57,5.57,0,0,1,2.08,1.41,7.11,7.11,0,0,1,1.49,2.61A12.32,12.32,0,0,1,534.78,820.42Zm-2.57-1.86a5.57,5.57,0,0,0-1.4-3.23,4,4,0,0,0-3-1.17,4.32,4.32,0,0,0-3.1,1.19,6.32,6.32,0,0,0-1.73,3.21Z"/><path class="cls-46" d="M553.92,821a10,10,0,0,1-.69,3.69,8.27,8.27,0,0,1-2,3,7.53,7.53,0,0,1-5.46,2.14,8.22,8.22,0,0,1-3-.54,7.45,7.45,0,0,1-2.49-1.59,8.17,8.17,0,0,1-1.95-3,10.63,10.63,0,0,1-.1-7.26,7.92,7.92,0,0,1,1.84-2.88,7.65,7.65,0,0,1,2.58-1.78,7.92,7.92,0,0,1,3.13-.63,8.08,8.08,0,0,1,3.13.58,7.21,7.21,0,0,1,2.49,1.71,8.67,8.67,0,0,1,1.88,3A10.13,10.13,0,0,1,553.92,821Zm-2.65.12a9.28,9.28,0,0,0-.51-3,6.19,6.19,0,0,0-1.57-2.49,4.49,4.49,0,0,0-1.53-1,5.1,5.1,0,0,0-1.85-.34,4.58,4.58,0,0,0-3.59,1.51,6.28,6.28,0,0,0-1.39,2.29,8.61,8.61,0,0,0-.5,2.89,9.1,9.1,0,0,0,.51,3.11,5.94,5.94,0,0,0,1.66,2.45,4.36,4.36,0,0,0,1.5.89,5.32,5.32,0,0,0,3.74-.06,4.57,4.57,0,0,0,1.59-1.06,6.41,6.41,0,0,0,1.44-2.32A8.31,8.31,0,0,0,551.27,821.15Z"/><path class="cls-46" d="M572.29,829.44h-2.63c0-.31,0-1.34,0-3.08s0-2.81,0-3.22c0-.57,0-1.42,0-2.54s0-2,0-2.47a4.61,4.61,0,0,0-.73-2.74,2.92,2.92,0,0,0-2.36-.83,7,7,0,0,0-2.51.6,20.43,20.43,0,0,0-3,1.53c0,.12,0,.78,0,2s0,2.29,0,3.27c0,1.29,0,2.83,0,4.65s0,2.77,0,2.86h-2.62q0-.12,0-2t0-5.7c0-1.16,0-2.52,0-4.09s0-3.22,0-5h2.59l0,1.91,0,0a22.26,22.26,0,0,1,3.87-1.85,8.48,8.48,0,0,1,2.58-.53,4.54,4.54,0,0,1,3.42,1.34,5.08,5.08,0,0,1,1.28,3.66c0,1.39,0,2.6,0,3.61s0,1.84,0,2.47c0,1,0,2.26,0,3.77S572.29,829.36,572.29,829.44Z"/><path class="cls-46" d="M603.35,822.89a5.39,5.39,0,0,1-.86,3,6.33,6.33,0,0,1-2.48,2.18,11.45,11.45,0,0,1-3.16,1.08,20.33,20.33,0,0,1-4,.34c-1.1,0-2.22,0-3.38-.05l-1.93-.08q.06-3.18.07-6c0-1.88,0-3.68,0-5.4q0-4.87,0-7.73c0-1.9,0-2.88,0-3l1.83-.08c1.07,0,2.11-.07,3.11-.07a20.49,20.49,0,0,1,3.15.22,10.9,10.9,0,0,1,2.44.63,5.35,5.35,0,0,1,2.37,1.71,4.36,4.36,0,0,1,.86,2.75,4.65,4.65,0,0,1-1.08,3,5.5,5.5,0,0,1-2.47,1.8v.17a7.84,7.84,0,0,1,2.22.54,5.62,5.62,0,0,1,1.89,1.25,5,5,0,0,1,1.07,1.58A5.3,5.3,0,0,1,603.35,822.89Zm-2.83.09a3.68,3.68,0,0,0-.29-1.52,4.44,4.44,0,0,0-.9-1.29,4.13,4.13,0,0,0-1.55-.91,6.51,6.51,0,0,0-2.15-.35l-1.51,0h-.75l-.27-2a9.19,9.19,0,0,0,2.17-.29,5.33,5.33,0,0,0,1.67-.77,4,4,0,0,0,1.14-1.27,3.39,3.39,0,0,0,.45-1.74,3.07,3.07,0,0,0-.49-1.75,3.61,3.61,0,0,0-1.36-1.17,6.67,6.67,0,0,0-1.79-.52,13.65,13.65,0,0,0-2.27-.18q-.78,0-1.44,0l-.83,0c0,1.62-.05,3.34-.06,5.15s0,3.13,0,3.95c0,1.91,0,3.82,0,5.74s0,2.94,0,3.08l.89,0,1.07,0a27.94,27.94,0,0,0,3.54-.2,7.34,7.34,0,0,0,2.76-.83,3.85,3.85,0,0,0,1.43-1.34A3.62,3.62,0,0,0,600.52,823Z"/><path class="cls-46" d="M618.19,814.59a27.7,27.7,0,0,0-2.8.92q-1.87.69-4.34,1.86c0,.12,0,.67,0,1.66s0,1.92,0,2.77c0,1.3,0,2.85,0,4.65s0,2.79,0,3h-2.62q0-.29,0-1.86c0-1.06,0-2.85,0-5.4,0-1,0-2.47,0-4.32s0-3.59,0-5.23h2.57v2.53h0a38.52,38.52,0,0,1,3.7-1.84,22.09,22.09,0,0,1,2.92-1.06Z"/><path class="cls-46" d="M634.51,820.42h-12a7.27,7.27,0,0,0,.74,3.23,6.12,6.12,0,0,0,2.24,2.43,7.4,7.4,0,0,0,2.19.92,12.11,12.11,0,0,0,3,.31c.63,0,1.21,0,1.73,0l1-.07-.3,2.21-.88.06c-.5,0-1.09,0-1.76,0a14.06,14.06,0,0,1-4.63-.69,8.71,8.71,0,0,1-3.22-1.9,8.48,8.48,0,0,1-1.84-2.59,8,8,0,0,1-.75-3.5,9.74,9.74,0,0,1,.56-3.42,9.3,9.3,0,0,1,1.69-2.84,6.64,6.64,0,0,1,2.44-1.74,7.62,7.62,0,0,1,3-.62,7.53,7.53,0,0,1,2.74.47,5.54,5.54,0,0,1,2.07,1.41,7.13,7.13,0,0,1,1.5,2.61A12.32,12.32,0,0,1,634.51,820.42Zm-2.58-1.86a5.45,5.45,0,0,0-1.4-3.23,4,4,0,0,0-3-1.17,4.34,4.34,0,0,0-3.11,1.19,6.4,6.4,0,0,0-1.73,3.21Z"/><path class="cls-46" d="M662.7,829.44h-2.63c0-.13,0-.9,0-2.33s0-2.77,0-4c0-.5,0-1.32,0-2.45s0-2,0-2.55a4.18,4.18,0,0,0-.79-2.76,3.07,3.07,0,0,0-2.28-.76,6.61,6.61,0,0,0-2.17.45,15.76,15.76,0,0,0-2.83,1.41c0,.06,0,.17,0,.33s0,.38,0,.65c0,.89,0,1.8,0,2.73s0,1.8,0,2.64c0,1.84,0,3.38,0,4.63s.05,1.92.05,2h-2.63c0-.13,0-.8,0-2s0-2.66,0-4.32c0-.55,0-1.39,0-2.51s0-2,0-2.49a8.84,8.84,0,0,0-.14-1.39,2.78,2.78,0,0,0-.43-1.13,2.2,2.2,0,0,0-.89-.77,3.84,3.84,0,0,0-1.57-.26,5.59,5.59,0,0,0-2.17.54,23.29,23.29,0,0,0-2.86,1.57c0,.19,0,.89,0,2.11s0,2.22,0,3c0,1.31,0,2.89,0,4.73s0,2.81,0,2.93h-2.62c0-.09,0-.74,0-1.94s0-3.19,0-6c0-.9,0-2.13,0-3.67s0-3.28-.06-5.23h2.59l0,1.91,0,0a17.13,17.13,0,0,1,2.8-1.58,7.22,7.22,0,0,1,3-.78,5,5,0,0,1,2.71.68,3.83,3.83,0,0,1,1.55,1.73h0a20.85,20.85,0,0,1,3.51-1.79,7.91,7.91,0,0,1,2.73-.62,4.74,4.74,0,0,1,3.58,1.34,5,5,0,0,1,1.28,3.61c0,1.17,0,2.16,0,3s0,1.66,0,2.55c0,1.86,0,3.43,0,4.72S662.7,829.35,662.7,829.44Z"/><path class="cls-46" d="M680.21,820c0,2.75,0,5,0,6.71s0,2.66,0,2.79l-1.54.12c-.92.07-2.11.11-3.56.11a15.1,15.1,0,0,1-2.74-.25,9.35,9.35,0,0,1-2.37-.71,5.65,5.65,0,0,1-2.15-1.68,4,4,0,0,1-.82-2.56,4.09,4.09,0,0,1,1-2.73,6.76,6.76,0,0,1,2.7-1.86,15.73,15.73,0,0,1,2.88-.81,35,35,0,0,1,4.11-.54,4.5,4.5,0,0,0-.65-2.12,3.39,3.39,0,0,0-1.61-1.27,7.07,7.07,0,0,0-1.63-.42,15.93,15.93,0,0,0-2.09-.12c-.5,0-.92,0-1.27,0l-1.42.08.27-2.21,1,0c.5,0,1.17,0,2,0a13.81,13.81,0,0,1,3.5.4,6,6,0,0,1,2.54,1.32,5.53,5.53,0,0,1,1.43,2.13A10.94,10.94,0,0,1,680.21,820Zm-2.54,4v-1.42c0-.58,0-1.24,0-2-.49,0-1.34.12-2.56.29a14.56,14.56,0,0,0-3.07.74,4.79,4.79,0,0,0-1.65,1,2.27,2.27,0,0,0-.73,1.73,2.62,2.62,0,0,0,.62,1.81,4,4,0,0,0,1.67,1.06,8.75,8.75,0,0,0,1.81.4,15.28,15.28,0,0,0,2.08.13l.81,0,1,0v-1.1C677.67,826,677.67,825.08,677.67,824Z"/><path class="cls-46" d="M699.92,829.44H697.3c0-.31,0-1.34,0-3.08s0-2.81,0-3.22c0-.57,0-1.42,0-2.54s0-2,0-2.47a4.54,4.54,0,0,0-.73-2.74,2.92,2.92,0,0,0-2.36-.83,7.07,7.07,0,0,0-2.51.6,20.93,20.93,0,0,0-3,1.53c0,.12,0,.78,0,2s0,2.29,0,3.27c0,1.29,0,2.83,0,4.65s0,2.77,0,2.86h-2.62q0-.12,0-2c0-1.28,0-3.18,0-5.7,0-1.16,0-2.52,0-4.09s0-3.22-.06-5h2.59l0,1.91,0,0a22.26,22.26,0,0,1,3.87-1.85,8.48,8.48,0,0,1,2.59-.53,4.53,4.53,0,0,1,3.41,1.34,5,5,0,0,1,1.29,3.66c0,1.39,0,2.6,0,3.61s0,1.84,0,2.47c0,1,0,2.26,0,3.77S699.92,829.36,699.92,829.44Z"/><path class="cls-46" d="M717.43,820c0,2.75,0,5,0,6.71s0,2.66,0,2.79l-1.54.12c-.92.07-2.11.11-3.56.11a15.1,15.1,0,0,1-2.74-.25,9.35,9.35,0,0,1-2.37-.71,5.65,5.65,0,0,1-2.15-1.68,4,4,0,0,1-.82-2.56,4.09,4.09,0,0,1,1-2.73,6.83,6.83,0,0,1,2.7-1.86,15.73,15.73,0,0,1,2.88-.81,35,35,0,0,1,4.11-.54,4.5,4.5,0,0,0-.65-2.12,3.39,3.39,0,0,0-1.61-1.27,7.07,7.07,0,0,0-1.63-.42,15.93,15.93,0,0,0-2.09-.12c-.5,0-.92,0-1.27,0l-1.42.08.27-2.21,1,0c.5,0,1.17,0,2,0a13.81,13.81,0,0,1,3.5.4,6,6,0,0,1,2.54,1.32,5.53,5.53,0,0,1,1.43,2.13A10.94,10.94,0,0,1,717.43,820Zm-2.54,4v-1.42c0-.58,0-1.24,0-2-.49,0-1.34.12-2.56.29a14.56,14.56,0,0,0-3.07.74,4.79,4.79,0,0,0-1.65,1,2.27,2.27,0,0,0-.73,1.73,2.62,2.62,0,0,0,.62,1.81,4,4,0,0,0,1.68,1.06,8.51,8.51,0,0,0,1.8.4,15.38,15.38,0,0,0,2.08.13l.81,0,1,0v-1.1C714.89,826,714.89,825.08,714.89,824Z"/><path class="cls-46" d="M743.83,823.18a5.46,5.46,0,0,1-.81,3,6.13,6.13,0,0,1-2.17,2.09,10.32,10.32,0,0,1-2.86,1.1,15.73,15.73,0,0,1-3.57.37c-.71,0-1.44,0-2.2-.06s-1.2-.07-1.32-.09l-.14-2.39c.16,0,.59.07,1.3.13s1.54.09,2.51.09a15,15,0,0,0,2.27-.23,8.41,8.41,0,0,0,2.14-.6,4.05,4.05,0,0,0,1.5-1.16,2.76,2.76,0,0,0,.53-1.73,3.25,3.25,0,0,0-.53-1.88,5.16,5.16,0,0,0-1.73-1.49,21.73,21.73,0,0,0-2-1,23.08,23.08,0,0,1-2.24-1.2,6.87,6.87,0,0,1-2.41-2.25,5.23,5.23,0,0,1-.72-2.71,5.11,5.11,0,0,1,.65-2.65,6.54,6.54,0,0,1,1.71-1.92,7.25,7.25,0,0,1,2.6-1.19,13.35,13.35,0,0,1,3.41-.4c.69,0,1.39,0,2.09.06s1.11.06,1.21.07l.23,2.41-1.21-.12c-.71-.07-1.59-.1-2.63-.1a9.08,9.08,0,0,0-1.91.21,5.87,5.87,0,0,0-1.74.64,3.45,3.45,0,0,0-1.13,1.06,2.75,2.75,0,0,0-.46,1.59,2.79,2.79,0,0,0,.49,1.57,5.39,5.39,0,0,0,1.83,1.55q.69.42,1.8,1c.75.36,1.48.75,2.2,1.17a7.37,7.37,0,0,1,2.5,2.25A5.14,5.14,0,0,1,743.83,823.18Z"/><path class="cls-46" d="M752,809.41H749v-2.85H752Zm-.15,20h-2.62c0-.18,0-1.27,0-3.28s0-3.65,0-5c0-1.14,0-2.39,0-3.76s0-3-.05-4.81h2.62c0,1.6,0,3.09-.06,4.48s0,2.62,0,3.71q0,3.87,0,6.21C751.78,828.59,751.8,829.39,751.8,829.44Z"/><path class="cls-46" d="M767.17,827.38l-.3,2.1a3.8,3.8,0,0,1-.57,0h-.79a8,8,0,0,1-5.15-1.42,5.27,5.27,0,0,1-1.74-4.35c0-1.23,0-2.55,0-4s0-3.15,0-5.23h-2.79v-2h2.94V808.7h2.41v3.93h5.94v2h-5.94q0,.34,0,2.07c0,1.15,0,2,0,2.56v4.12a3.83,3.83,0,0,0,1.16,3.11,5.62,5.62,0,0,0,3.59.95h1.24Z"/><path class="cls-46" d="M784.32,820.42h-12a7.4,7.4,0,0,0,.74,3.23,6.08,6.08,0,0,0,2.25,2.43,7.19,7.19,0,0,0,2.19.92,12,12,0,0,0,3,.31c.63,0,1.21,0,1.74,0l1-.07-.3,2.21-.88.06c-.5,0-1.09,0-1.76,0a14,14,0,0,1-4.62-.69,8.28,8.28,0,0,1-5.07-4.49,8,8,0,0,1-.75-3.5,10,10,0,0,1,.56-3.42,9.13,9.13,0,0,1,1.7-2.84,6.52,6.52,0,0,1,2.43-1.74,7.65,7.65,0,0,1,3-.62,7.53,7.53,0,0,1,2.74.47,5.57,5.57,0,0,1,2.08,1.41,7.11,7.11,0,0,1,1.49,2.61A12.32,12.32,0,0,1,784.32,820.42Zm-2.57-1.86a5.57,5.57,0,0,0-1.4-3.23,4,4,0,0,0-3-1.17,4.34,4.34,0,0,0-3.11,1.19,6.31,6.31,0,0,0-1.72,3.21Z"/><path class="cls-46" d="M803.08,820.52a7.91,7.91,0,0,1-1.15,4.37,8.13,8.13,0,0,1-3.08,2.85,12.57,12.57,0,0,1-3.72,1.26,21.2,21.2,0,0,1-3.85.37l.06,7.62H788.7c0-.19,0-1.72,0-4.59s0-5.75,0-8.64c0-1.45,0-3.14,0-5.06s0-4,0-6.2l1.06,0h.8a30.93,30.93,0,0,1,5.41.37,10.7,10.7,0,0,1,3.51,1.3,7.19,7.19,0,0,1,2.64,2.61A7.28,7.28,0,0,1,803.08,820.52Zm-2.66.09a5.28,5.28,0,0,0-.76-2.85,5.68,5.68,0,0,0-2-1.94,8.54,8.54,0,0,0-2.53-.92,15.72,15.72,0,0,0-3.08-.29h-.75c0,.19,0,.84,0,2s0,3.06,0,5.82c0,.57,0,1.38,0,2.42s0,1.86,0,2.48a16.47,16.47,0,0,0,3.12-.29,9.93,9.93,0,0,0,2.57-.78,5.77,5.77,0,0,0,3.45-5.61Z"/><path class="cls-46" d="M821.24,829.44H818.7v-2a22.09,22.09,0,0,1-2.9,1.57,8,8,0,0,1-3.41.81,4.74,4.74,0,0,1-3.59-1.36,5.35,5.35,0,0,1-1.29-3.82c0-.89,0-1.94,0-3.16s0-2.12,0-2.67c0-1,0-2.25,0-3.73s0-2.31,0-2.5h2.63c0,.15,0,.94,0,2.4s0,2.6,0,3.46,0,1.72,0,2.86,0,1.95,0,2.42a5.3,5.3,0,0,0,.68,2.88,2.42,2.42,0,0,0,2.1.91,8,8,0,0,0,3.24-.8,15.53,15.53,0,0,0,2.6-1.39c0-.14,0-.75,0-1.84s0-2.45,0-4.07c0-1.16,0-2.56,0-4.18s0-2.5,0-2.65h2.62c0,.19,0,.81,0,1.87s0,2.86,0,5.41c0,1.42,0,2.68,0,3.76S821.22,826.67,821.24,829.44Z"/><text class="cls-34" transform="translate(463.11 564.47) scale(1 0.9)">VIDEO EDI<tspan class="cls-47" x="212.15" y="0">T</tspan><tspan x="231.41" y="0">OR</tspan></text><text class="cls-36" transform="translate(472.78 632.13)">Ca<tspan class="cls-37" x="44.21" y="0">r</tspan><tspan x="57.44" y="0">issa Lois </tspan><tspan class="cls-38" x="192.64" y="0">T</tspan><tspan class="cls-39" x="207.88" y="0">r</tspan><tspan x="220.37" y="0">acy</tspan></text><text class="cls-48" transform="translate(501.26 986.62)">- <tspan class="cls-49" x="12.63" y="0">K</tspan><tspan x="27.74" y="0">a</tspan><tspan class="cls-50" x="42.13" y="0">r</tspan><tspan class="cls-35" x="52.16" y="0">y</tspan><tspan x="64.79" y="0">a ini dituju</tspan><tspan class="cls-35" x="178.17" y="0">k</tspan><tspan x="189.71" y="0">an sebagai </tspan><tspan class="cls-51" x="318.61" y="0">T</tspan><tspan x="329.2" y="0">ugas Akhir / Sk</tspan><tspan class="cls-37" x="499.22" y="0">r</tspan><tspan x="508.56" y="0">ipsi dalam me</tspan><tspan class="cls-52" x="659.85" y="0">m</tspan><tspan x="679.13" y="0">pe</tspan><tspan class="cls-53" x="706.79" y="0">r</tspan><tspan x="715.56" y="0">oleh gelar Sa</tspan><tspan class="cls-37" x="862.58" y="0">r</tspan><tspan x="871.92" y="0">jana -</tspan></text></g></g></svg>