<svg xmlns="http://www.w3.org/2000/svg" xmlns:xlink="http://www.w3.org/1999/xlink" width="1920" zoomAndPan="magnify" viewBox="0 0 1440 809.999993" height="1080" preserveAspectRatio="xMidYMid meet" version="1.0"><defs><clipPath id="a3d8439266"><path d="M 147.605469 90.210938 L 1292 90.210938 L 1292 810 L 147.605469 810 Z M 147.605469 90.210938 " clip-rule="nonzero"/></clipPath></defs><g clip-path="url(#a3d8439266)"><path fill="#1a1a1a" d="M 179.921875 90.195312 C 162.234375 90.195312 147.996094 104.441406 147.996094 122.140625 L 147.996094 687.644531 C 147.996094 705.34375 162.234375 719.589844 179.921875 719.589844 L 663.582031 719.589844 C 651.019531 738.433594 636.914062 762.519531 634.535156 778.746094 L 576.820312 778.746094 C 574.484375 778.746094 572.597656 780.632812 572.597656 782.972656 L 572.597656 805.992188 C 572.597656 808.332031 574.484375 810.21875 576.820312 810.21875 L 862.886719 810.21875 C 865.226562 810.21875 867.109375 808.332031 867.109375 805.992188 L 867.109375 782.972656 C 867.109375 780.632812 865.226562 778.746094 862.886719 778.746094 L 805.175781 778.746094 C 802.792969 762.519531 788.6875 738.429688 776.125 719.589844 L 1259.785156 719.589844 C 1277.472656 719.589844 1291.714844 705.34375 1291.714844 687.644531 L 1291.714844 122.140625 C 1291.714844 104.441406 1277.472656 90.195312 1259.785156 90.195312 Z M 173.730469 124.332031 L 1265.964844 124.332031 L 1265.964844 685.449219 L 173.730469 685.449219 Z M 173.730469 124.332031 " fill-opacity="1" fill-rule="nonzero"/></g></svg>