<svg xmlns="http://www.w3.org/2000/svg" xmlns:xlink="http://www.w3.org/1999/xlink" width="1080" zoomAndPan="magnify" viewBox="0 0 810 809.999993" height="1080" preserveAspectRatio="xMidYMid meet" version="1.0"><defs><clipPath id="74d1273615"><path d="M 34.308594 27 L 443.808594 27 L 443.808594 783 L 34.308594 783 Z M 34.308594 27 " clip-rule="nonzero"/></clipPath></defs><path fill="#08406f" d="M 767.679688 221.707031 C 750.773438 204.796875 723.378906 204.796875 706.472656 221.707031 L 607.21875 320.957031 L 507.96875 221.707031 C 491.0625 204.796875 463.667969 204.796875 446.761719 221.707031 C 429.851562 238.613281 429.851562 266.003906 446.761719 282.914062 L 546.011719 382.164062 L 446.761719 481.414062 C 429.851562 498.324219 429.851562 525.714844 446.761719 542.625 C 455.214844 551.078125 466.289062 555.304688 477.363281 555.304688 C 488.441406 555.304688 499.515625 551.078125 507.96875 542.625 L 607.21875 443.371094 L 706.472656 542.625 C 714.925781 551.078125 726 555.304688 737.074219 555.304688 C 748.152344 555.304688 759.226562 551.078125 767.679688 542.625 C 784.585938 525.714844 784.585938 498.324219 767.679688 481.414062 L 668.429688 382.164062 L 767.679688 282.914062 C 784.585938 266.003906 784.585938 238.613281 767.679688 221.707031 Z M 767.679688 221.707031 " fill-opacity="1" fill-rule="nonzero"/><g clip-path="url(#74d1273615)"><path fill="#08406f" d="M 640.515625 674.296875 C 630.136719 674.296875 619.800781 670.359375 611.925781 662.484375 C 596.132812 646.691406 596.132812 621.097656 611.925781 605.304688 C 722.304688 494.925781 722.304688 315.332031 611.925781 204.953125 C 596.132812 189.160156 596.132812 163.566406 611.925781 147.726562 C 627.71875 131.933594 653.3125 131.933594 669.105469 147.726562 C 737.875 216.496094 775.726562 307.902344 775.726562 405.082031 C 775.726562 502.308594 737.875 593.714844 669.105469 662.441406 C 661.230469 670.402344 650.851562 674.296875 640.515625 674.296875 Z M 496.851562 598.054688 C 486.515625 598.054688 476.132812 594.117188 468.261719 586.199219 C 452.464844 570.40625 452.464844 544.8125 468.261719 529.019531 C 536.582031 460.699219 536.582031 349.515625 468.261719 281.191406 C 452.464844 265.398438 452.464844 239.808594 468.261719 223.96875 C 484.054688 208.175781 509.644531 208.175781 525.484375 223.96875 C 625.304688 323.832031 625.304688 486.335938 525.484375 586.199219 C 517.566406 594.117188 507.183594 598.054688 496.851562 598.054688 Z M 372.421875 40.035156 C 394.03125 18.378906 411.75 25.714844 411.75 56.320312 L 411.75 753.9375 C 411.75 784.496094 394.03125 791.832031 372.421875 770.222656 L 169.113281 566.914062 L 34.308594 566.914062 L 34.308594 243.386719 L 169.113281 243.386719 Z M 372.421875 40.035156 " fill-opacity="1" fill-rule="nonzero"/></g></svg>